<svg xmlns="http://www.w3.org/2000/svg" viewBox="-4.0 -4.0 147.52 52.0">
  <g fill="#FFFFFF" fill-rule="nonzero" transform="translate(22.0 22.0) scale(0.058) translate(-500.0 -500.0)">
    <polygon points="170.0,120.0 425.0,120.0 425.0,210.0 210.0,210.0 210.0,425.0 120.0,425.0 120.0,170.0"/>
    <polygon points="880.0,170.0 880.0,425.0 790.0,425.0 790.0,210.0 575.0,210.0 575.0,120.0 830.0,120.0"/>
    <polygon points="830.0,880.0 575.0,880.0 575.0,790.0 790.0,790.0 790.0,575.0 880.0,575.0 880.0,830.0"/>
    <polygon points="120.0,830.0 120.0,575.0 210.0,575.0 210.0,790.0 425.0,790.0 425.0,880.0 170.0,880.0"/>
    <polygon points="528.28,217.16 613.14,302.01 549.5,365.65 500.0,316.15 450.5,365.65 386.86,302.01 471.72,217.16"/>
    <polygon points="782.84,528.28 697.99,613.14 634.35,549.5 683.85,500.0 634.35,450.5 697.99,386.86 782.84,471.72"/>
    <polygon points="471.72,782.84 386.86,697.99 450.5,634.35 500.0,683.85 549.5,634.35 613.14,697.99 528.28,782.84"/>
    <polygon points="217.16,471.72 302.01,386.86 365.65,450.5 316.15,500.0 365.65,549.5 302.01,613.14 217.16,528.28"/>
  </g>
  <g transform="translate(59.0 10.0)" fill="none" stroke="#FFFFFF" stroke-width="2.6" stroke-linecap="round" stroke-linejoin="round"><path d="M 14.78 6.65 A 6.74 5.35 0 1 0 8.04 12.0"/><path d="M 8.04 12.0 A 6.74 5.35 0 1 1 1.3 17.35"/><path d="M 22.78 1.3 L 29.52 12.0 L 36.26 1.3"/><path d="M 29.52 12.0 L 29.52 22.7"/><path d="M 44.26 22.7 L 44.26 1.3 L 57.74 22.7 L 57.74 1.3"/><path d="M 65.74 1.3 L 65.74 22.7"/><path d="M 79.22 1.3 L 65.74 14.354"/><path d="M 70.323 9.86 L 79.22 22.7"/></g>
</svg>
